{
	"patcher" : 	{
		"fileversion" : 1,
		"rect" : [ 50.0, 94.0, 640.0, 480.0 ],
		"bglocked" : 0,
		"defrect" : [ 50.0, 94.0, 640.0, 480.0 ],
		"openrect" : [ 0.0, 0.0, 0.0, 0.0 ],
		"openinpresentation" : 0,
		"default_fontsize" : 12.0,
		"default_fontface" : 0,
		"default_fontname" : "Arial",
		"gridonopen" : 0,
		"gridsize" : [ 15.0, 15.0 ],
		"gridsnaponopen" : 0,
		"toolbarvisible" : 1,
		"boxanimatetime" : 200,
		"imprint" : 0,
		"enablehscroll" : 1,
		"enablevscroll" : 1,
		"devicewidth" : 0.0,
		"boxes" : [ 			{
				"box" : 				{
					"maxclass" : "outlet",
					"patching_rect" : [ 210.0, 202.0, 25.0, 25.0 ],
					"numoutlets" : 0,
					"id" : "obj-18",
					"numinlets" : 1,
					"comment" : ""
				}

			}
, 			{
				"box" : 				{
					"maxclass" : "comment",
					"text" : "based on patcher by Tom Mays, tmays@free.fr",
					"fontname" : "Arial",
					"patching_rect" : [ 332.0, 301.0, 255.0, 17.0 ],
					"numoutlets" : 0,
					"id" : "obj-40",
					"fontsize" : 9.0,
					"numinlets" : 1
				}

			}
, 			{
				"box" : 				{
					"maxclass" : "comment",
					"text" : "time per frame in ms",
					"fontname" : "Arial",
					"patching_rect" : [ 291.0, 172.0, 150.0, 20.0 ],
					"numoutlets" : 0,
					"id" : "obj-17",
					"fontsize" : 12.0,
					"numinlets" : 1
				}

			}
, 			{
				"box" : 				{
					"maxclass" : "message",
					"text" : "3",
					"fontname" : "Arial",
					"patching_rect" : [ 496.0, 85.0, 32.5, 18.0 ],
					"numoutlets" : 1,
					"id" : "obj-15",
					"outlettype" : [ "" ],
					"fontsize" : 12.0,
					"numinlets" : 2
				}

			}
, 			{
				"box" : 				{
					"maxclass" : "newobj",
					"text" : "loadbang",
					"fontname" : "Arial",
					"patching_rect" : [ 486.0, 35.0, 60.0, 20.0 ],
					"numoutlets" : 1,
					"id" : "obj-13",
					"outlettype" : [ "bang" ],
					"fontsize" : 12.0,
					"numinlets" : 1
				}

			}
, 			{
				"box" : 				{
					"maxclass" : "comment",
					"text" : "fps",
					"fontname" : "Arial",
					"patching_rect" : [ 200.0, 63.0, 27.0, 20.0 ],
					"numoutlets" : 0,
					"id" : "obj-10",
					"fontsize" : 12.0,
					"presentation_rect" : [ 179.0, 46.0, 0.0, 0.0 ],
					"numinlets" : 1
				}

			}
, 			{
				"box" : 				{
					"maxclass" : "comment",
					"text" : "toggle",
					"fontname" : "Arial",
					"patching_rect" : [ 259.0, 30.0, 43.0, 20.0 ],
					"numoutlets" : 0,
					"id" : "obj-9",
					"fontsize" : 12.0,
					"numinlets" : 1
				}

			}
, 			{
				"box" : 				{
					"maxclass" : "inlet",
					"patching_rect" : [ 260.0, 51.0, 25.0, 25.0 ],
					"numoutlets" : 1,
					"id" : "obj-7",
					"outlettype" : [ "" ],
					"presentation_rect" : [ 258.0, 84.0, 0.0, 0.0 ],
					"numinlets" : 0,
					"comment" : ""
				}

			}
, 			{
				"box" : 				{
					"maxclass" : "inlet",
					"patching_rect" : [ 209.0, 89.0, 25.0, 25.0 ],
					"numoutlets" : 1,
					"id" : "obj-6",
					"outlettype" : [ "" ],
					"numinlets" : 0,
					"comment" : ""
				}

			}
, 			{
				"box" : 				{
					"maxclass" : "toggle",
					"patching_rect" : [ 274.0, 87.0, 20.0, 20.0 ],
					"numoutlets" : 1,
					"id" : "obj-5",
					"outlettype" : [ "int" ],
					"numinlets" : 1
				}

			}
, 			{
				"box" : 				{
					"maxclass" : "umenu",
					"types" : [  ],
					"fontname" : "Arial",
					"patching_rect" : [ 352.0, 85.0, 100.0, 20.0 ],
					"numoutlets" : 3,
					"id" : "obj-1",
					"outlettype" : [ "int", "", "" ],
					"fontsize" : 12.0,
					"items" : [ 12, ",", 15, ",", 23.976, ",", 24, ",", 25, ",", 29.969999, ",", 30 ],
					"numinlets" : 1
				}

			}
, 			{
				"box" : 				{
					"maxclass" : "flonum",
					"fontname" : "Arial",
					"patching_rect" : [ 235.0, 174.0, 48.0, 17.0 ],
					"numoutlets" : 2,
					"id" : "obj-116",
					"outlettype" : [ "float", "bang" ],
					"bgcolor" : [ 0.866667, 0.866667, 0.866667, 1.0 ],
					"fontsize" : 9.0,
					"htextcolor" : [ 0.870588, 0.870588, 0.870588, 1.0 ],
					"triscale" : 0.9,
					"numinlets" : 1
				}

			}
, 			{
				"box" : 				{
					"maxclass" : "flonum",
					"fontname" : "Arial",
					"patching_rect" : [ 203.0, 134.0, 48.0, 17.0 ],
					"numoutlets" : 2,
					"id" : "obj-118",
					"outlettype" : [ "float", "bang" ],
					"bgcolor" : [ 0.866667, 0.866667, 0.866667, 1.0 ],
					"minimum" : 0.1,
					"fontsize" : 9.0,
					"htextcolor" : [ 0.870588, 0.870588, 0.870588, 1.0 ],
					"triscale" : 0.9,
					"numinlets" : 1
				}

			}
, 			{
				"box" : 				{
					"maxclass" : "newobj",
					"text" : "p frame_motor",
					"fontname" : "Arial",
					"patching_rect" : [ 203.0, 153.0, 75.0, 17.0 ],
					"numoutlets" : 2,
					"id" : "obj-120",
					"outlettype" : [ "bang", "float" ],
					"fontsize" : 9.0,
					"color" : [ 0.156863, 0.8, 0.54902, 1.0 ],
					"numinlets" : 2,
					"patcher" : 					{
						"fileversion" : 1,
						"rect" : [ 40.0, 55.0, 272.0, 291.0 ],
						"bglocked" : 0,
						"defrect" : [ 40.0, 55.0, 272.0, 291.0 ],
						"openrect" : [ 0.0, 0.0, 0.0, 0.0 ],
						"openinpresentation" : 0,
						"default_fontsize" : 12.0,
						"default_fontface" : 0,
						"default_fontname" : "Arial",
						"gridonopen" : 0,
						"gridsize" : [ 15.0, 15.0 ],
						"gridsnaponopen" : 0,
						"toolbarvisible" : 1,
						"boxanimatetime" : 200,
						"imprint" : 0,
						"enablehscroll" : 1,
						"enablevscroll" : 1,
						"devicewidth" : 0.0,
						"boxes" : [ 							{
								"box" : 								{
									"maxclass" : "inlet",
									"patching_rect" : [ 137.0, 42.0, 15.0, 15.0 ],
									"numoutlets" : 1,
									"id" : "obj-1",
									"outlettype" : [ "int" ],
									"numinlets" : 0,
									"comment" : "motor switch"
								}

							}
, 							{
								"box" : 								{
									"maxclass" : "outlet",
									"patching_rect" : [ 117.0, 183.0, 15.0, 15.0 ],
									"numoutlets" : 0,
									"id" : "obj-2",
									"numinlets" : 1,
									"comment" : ""
								}

							}
, 							{
								"box" : 								{
									"maxclass" : "inlet",
									"patching_rect" : [ 102.0, 103.0, 15.0, 15.0 ],
									"numoutlets" : 1,
									"id" : "obj-3",
									"outlettype" : [ "float" ],
									"numinlets" : 0,
									"comment" : "frames/sec"
								}

							}
, 							{
								"box" : 								{
									"maxclass" : "outlet",
									"patching_rect" : [ 34.0, 209.0, 15.0, 15.0 ],
									"numoutlets" : 0,
									"id" : "obj-4",
									"numinlets" : 1,
									"comment" : "metro bangs out"
								}

							}
, 							{
								"box" : 								{
									"maxclass" : "flonum",
									"fontname" : "Arial",
									"patching_rect" : [ 102.0, 123.0, 48.0, 17.0 ],
									"numoutlets" : 2,
									"id" : "obj-5",
									"outlettype" : [ "float", "bang" ],
									"bgcolor" : [ 0.866667, 0.866667, 0.866667, 1.0 ],
									"fontsize" : 9.0,
									"htextcolor" : [ 0.870588, 0.870588, 0.870588, 1.0 ],
									"triscale" : 0.9,
									"numinlets" : 1
								}

							}
, 							{
								"box" : 								{
									"maxclass" : "newobj",
									"text" : "!/ 1000.",
									"fontname" : "Arial",
									"patching_rect" : [ 102.0, 141.0, 45.0, 17.0 ],
									"numoutlets" : 1,
									"id" : "obj-6",
									"outlettype" : [ "float" ],
									"fontsize" : 9.0,
									"numinlets" : 2
								}

							}
, 							{
								"box" : 								{
									"maxclass" : "flonum",
									"fontname" : "Arial",
									"patching_rect" : [ 102.0, 161.0, 50.0, 17.0 ],
									"numoutlets" : 2,
									"id" : "obj-7",
									"outlettype" : [ "float", "bang" ],
									"bgcolor" : [ 0.866667, 0.866667, 0.866667, 1.0 ],
									"minimum" : 0.5,
									"fontsize" : 9.0,
									"htextcolor" : [ 0.870588, 0.870588, 0.870588, 1.0 ],
									"triscale" : 0.9,
									"numinlets" : 1
								}

							}
, 							{
								"box" : 								{
									"maxclass" : "toggle",
									"patching_rect" : [ 34.0, 82.0, 15.0, 15.0 ],
									"numoutlets" : 1,
									"id" : "obj-8",
									"outlettype" : [ "int" ],
									"numinlets" : 1
								}

							}
, 							{
								"box" : 								{
									"maxclass" : "newobj",
									"text" : "metro 2",
									"fontname" : "Arial",
									"patching_rect" : [ 34.0, 182.0, 78.0, 17.0 ],
									"numoutlets" : 1,
									"id" : "obj-9",
									"outlettype" : [ "bang" ],
									"fontsize" : 9.0,
									"numinlets" : 2
								}

							}
, 							{
								"box" : 								{
									"maxclass" : "comment",
									"text" : "motor switch",
									"fontname" : "Arial",
									"patching_rect" : [ 155.0, 42.0, 68.0, 17.0 ],
									"numoutlets" : 0,
									"id" : "obj-10",
									"fontsize" : 9.0,
									"numinlets" : 1
								}

							}
 ],
						"lines" : [ 							{
								"patchline" : 								{
									"source" : [ "obj-7", 0 ],
									"destination" : [ "obj-2", 0 ],
									"hidden" : 0,
									"midpoints" : [  ]
								}

							}
, 							{
								"patchline" : 								{
									"source" : [ "obj-7", 0 ],
									"destination" : [ "obj-9", 1 ],
									"hidden" : 0,
									"midpoints" : [  ]
								}

							}
, 							{
								"patchline" : 								{
									"source" : [ "obj-6", 0 ],
									"destination" : [ "obj-7", 0 ],
									"hidden" : 0,
									"midpoints" : [  ]
								}

							}
, 							{
								"patchline" : 								{
									"source" : [ "obj-5", 0 ],
									"destination" : [ "obj-6", 0 ],
									"hidden" : 0,
									"midpoints" : [  ]
								}

							}
, 							{
								"patchline" : 								{
									"source" : [ "obj-3", 0 ],
									"destination" : [ "obj-5", 0 ],
									"hidden" : 0,
									"midpoints" : [  ]
								}

							}
, 							{
								"patchline" : 								{
									"source" : [ "obj-9", 0 ],
									"destination" : [ "obj-4", 0 ],
									"hidden" : 0,
									"midpoints" : [  ]
								}

							}
, 							{
								"patchline" : 								{
									"source" : [ "obj-8", 0 ],
									"destination" : [ "obj-9", 0 ],
									"hidden" : 0,
									"midpoints" : [  ]
								}

							}
, 							{
								"patchline" : 								{
									"source" : [ "obj-1", 0 ],
									"destination" : [ "obj-8", 0 ],
									"hidden" : 0,
									"midpoints" : [  ]
								}

							}
 ]
					}
,
					"saved_object_attributes" : 					{
						"fontname" : "Arial",
						"default_fontface" : 0,
						"default_fontname" : "Arial",
						"globalpatchername" : "",
						"fontface" : 0,
						"fontsize" : 12.0,
						"default_fontsize" : 12.0
					}

				}

			}
 ],
		"lines" : [ 			{
				"patchline" : 				{
					"source" : [ "obj-120", 0 ],
					"destination" : [ "obj-18", 0 ],
					"hidden" : 0,
					"midpoints" : [  ]
				}

			}
, 			{
				"patchline" : 				{
					"source" : [ "obj-13", 0 ],
					"destination" : [ "obj-15", 0 ],
					"hidden" : 0,
					"midpoints" : [  ]
				}

			}
, 			{
				"patchline" : 				{
					"source" : [ "obj-15", 0 ],
					"destination" : [ "obj-1", 0 ],
					"hidden" : 0,
					"midpoints" : [  ]
				}

			}
, 			{
				"patchline" : 				{
					"source" : [ "obj-1", 1 ],
					"destination" : [ "obj-118", 0 ],
					"hidden" : 0,
					"midpoints" : [  ]
				}

			}
, 			{
				"patchline" : 				{
					"source" : [ "obj-7", 0 ],
					"destination" : [ "obj-5", 0 ],
					"hidden" : 0,
					"midpoints" : [  ]
				}

			}
, 			{
				"patchline" : 				{
					"source" : [ "obj-6", 0 ],
					"destination" : [ "obj-118", 0 ],
					"hidden" : 0,
					"midpoints" : [  ]
				}

			}
, 			{
				"patchline" : 				{
					"source" : [ "obj-5", 0 ],
					"destination" : [ "obj-120", 1 ],
					"hidden" : 0,
					"midpoints" : [  ]
				}

			}
, 			{
				"patchline" : 				{
					"source" : [ "obj-120", 1 ],
					"destination" : [ "obj-116", 0 ],
					"hidden" : 0,
					"midpoints" : [ 268.5, 172.0, 244.5, 172.0 ]
				}

			}
, 			{
				"patchline" : 				{
					"source" : [ "obj-118", 0 ],
					"destination" : [ "obj-120", 0 ],
					"hidden" : 0,
					"midpoints" : [  ]
				}

			}
 ]
	}

}
