{
	"patcher" : 	{
		"fileversion" : 1,
		"rect" : [ 25.0, 69.0, 640.0, 480.0 ],
		"bglocked" : 0,
		"defrect" : [ 25.0, 69.0, 640.0, 480.0 ],
		"openrect" : [ 0.0, 0.0, 0.0, 0.0 ],
		"openinpresentation" : 0,
		"default_fontsize" : 12.0,
		"default_fontface" : 0,
		"default_fontname" : "Arial",
		"gridonopen" : 0,
		"gridsize" : [ 15.0, 15.0 ],
		"gridsnaponopen" : 0,
		"toolbarvisible" : 1,
		"boxanimatetime" : 200,
		"imprint" : 0,
		"enablehscroll" : 1,
		"enablevscroll" : 1,
		"devicewidth" : 0.0,
		"boxes" : [ 			{
				"box" : 				{
					"maxclass" : "comment",
					"text" : "www.fox-gieg.com",
					"fontsize" : 9.0,
					"numinlets" : 1,
					"numoutlets" : 0,
					"patching_rect" : [ 407.0, 447.0, 100.0, 17.0 ],
					"id" : "obj-61",
					"fontname" : "Arial"
				}

			}
, 			{
				"box" : 				{
					"maxclass" : "comment",
					"text" : "simple_qtrecord v04",
					"fontsize" : 12.0,
					"numinlets" : 1,
					"numoutlets" : 0,
					"patching_rect" : [ 398.0, 417.0, 119.0, 20.0 ],
					"id" : "obj-89",
					"fontname" : "Arial"
				}

			}
, 			{
				"box" : 				{
					"maxclass" : "comment",
					"text" : "Nick Fox-Gieg",
					"fontsize" : 9.0,
					"numinlets" : 1,
					"numoutlets" : 0,
					"patching_rect" : [ 407.0, 434.0, 100.0, 17.0 ],
					"id" : "obj-90",
					"fontname" : "Arial"
				}

			}
, 			{
				"box" : 				{
					"maxclass" : "panel",
					"numinlets" : 1,
					"bgcolor" : [ 0.843137, 0.847059, 0.768627, 1.0 ],
					"numoutlets" : 0,
					"border" : 1,
					"patching_rect" : [ 380.0, 406.0, 154.0, 62.0 ],
					"id" : "obj-91",
					"rounded" : 100,
					"shadow" : -2,
					"bordercolor" : [ 0.215686, 0.090196, 0.090196, 1.0 ]
				}

			}
, 			{
				"box" : 				{
					"maxclass" : "comment",
					"text" : "<-- control in",
					"fontsize" : 12.0,
					"hidden" : 1,
					"numinlets" : 1,
					"numoutlets" : 0,
					"patching_rect" : [ 265.0, 286.0, 78.0, 20.0 ],
					"id" : "obj-13",
					"fontname" : "Arial"
				}

			}
, 			{
				"box" : 				{
					"maxclass" : "comment",
					"text" : "<-- audio in",
					"fontsize" : 12.0,
					"hidden" : 1,
					"numinlets" : 1,
					"numoutlets" : 0,
					"patching_rect" : [ 112.0, 61.0, 70.0, 20.0 ],
					"id" : "obj-12",
					"fontname" : "Arial"
				}

			}
, 			{
				"box" : 				{
					"maxclass" : "comment",
					"text" : "<-- video in",
					"fontsize" : 12.0,
					"hidden" : 1,
					"numinlets" : 1,
					"numoutlets" : 0,
					"patching_rect" : [ 75.0, 34.0, 70.0, 20.0 ],
					"id" : "obj-11",
					"fontname" : "Arial"
				}

			}
, 			{
				"box" : 				{
					"maxclass" : "inlet",
					"hidden" : 1,
					"numinlets" : 0,
					"numoutlets" : 1,
					"patching_rect" : [ 75.0, 61.0, 25.0, 25.0 ],
					"outlettype" : [ "" ],
					"id" : "obj-5",
					"comment" : ""
				}

			}
, 			{
				"box" : 				{
					"maxclass" : "inlet",
					"hidden" : 1,
					"numinlets" : 0,
					"numoutlets" : 1,
					"patching_rect" : [ 236.0, 285.0, 25.0, 25.0 ],
					"outlettype" : [ "" ],
					"id" : "obj-28",
					"comment" : ""
				}

			}
, 			{
				"box" : 				{
					"maxclass" : "comment",
					"text" : "3",
					"fontsize" : 18.0,
					"numinlets" : 1,
					"numoutlets" : 0,
					"patching_rect" : [ 152.0, 269.0, 23.0, 27.0 ],
					"id" : "obj-47",
					"fontname" : "Arial"
				}

			}
, 			{
				"box" : 				{
					"maxclass" : "panel",
					"numinlets" : 1,
					"bgcolor" : [ 1.0, 0.490196, 0.490196, 1.0 ],
					"numoutlets" : 0,
					"patching_rect" : [ 146.0, 267.0, 32.0, 32.0 ],
					"id" : "obj-49",
					"rounded" : 100
				}

			}
, 			{
				"box" : 				{
					"maxclass" : "comment",
					"text" : "2",
					"fontsize" : 18.0,
					"numinlets" : 1,
					"numoutlets" : 0,
					"patching_rect" : [ 222.0, 200.0, 23.0, 27.0 ],
					"id" : "obj-8",
					"fontname" : "Arial"
				}

			}
, 			{
				"box" : 				{
					"maxclass" : "panel",
					"numinlets" : 1,
					"bgcolor" : [ 1.0, 0.490196, 0.490196, 1.0 ],
					"numoutlets" : 0,
					"patching_rect" : [ 216.0, 196.0, 32.0, 32.0 ],
					"id" : "obj-10",
					"rounded" : 100
				}

			}
, 			{
				"box" : 				{
					"maxclass" : "comment",
					"text" : "1",
					"fontsize" : 18.0,
					"numinlets" : 1,
					"numoutlets" : 0,
					"patching_rect" : [ 146.0, 112.0, 23.0, 27.0 ],
					"id" : "obj-45",
					"fontname" : "Arial"
				}

			}
, 			{
				"box" : 				{
					"maxclass" : "panel",
					"numinlets" : 1,
					"bgcolor" : [ 1.0, 0.490196, 0.490196, 1.0 ],
					"numoutlets" : 0,
					"patching_rect" : [ 140.0, 108.0, 32.0, 32.0 ],
					"id" : "obj-46",
					"rounded" : 100
				}

			}
, 			{
				"box" : 				{
					"maxclass" : "comment",
					"text" : "2. Choose the frame rate.",
					"fontsize" : 12.0,
					"numinlets" : 1,
					"numoutlets" : 0,
					"patching_rect" : [ 351.0, 346.0, 209.0, 20.0 ],
					"id" : "obj-27",
					"fontname" : "Arial"
				}

			}
, 			{
				"box" : 				{
					"maxclass" : "newobj",
					"text" : "print fps",
					"fontsize" : 12.0,
					"hidden" : 1,
					"numinlets" : 1,
					"numoutlets" : 0,
					"patching_rect" : [ 402.0, 263.0, 53.0, 20.0 ],
					"id" : "obj-26",
					"fontname" : "Arial"
				}

			}
, 			{
				"box" : 				{
					"maxclass" : "newobj",
					"text" : "s fps",
					"fontsize" : 9.0,
					"hidden" : 1,
					"numinlets" : 1,
					"numoutlets" : 0,
					"patching_rect" : [ 460.0, 264.0, 30.0, 17.0 ],
					"id" : "obj-18",
					"fontname" : "Arial"
				}

			}
, 			{
				"box" : 				{
					"maxclass" : "newobj",
					"text" : "r bang",
					"fontsize" : 9.0,
					"hidden" : 1,
					"numinlets" : 0,
					"numoutlets" : 1,
					"patching_rect" : [ 493.0, 160.0, 35.0, 17.0 ],
					"outlettype" : [ "" ],
					"id" : "obj-2",
					"fontname" : "Arial"
				}

			}
, 			{
				"box" : 				{
					"maxclass" : "message",
					"text" : "2",
					"fontsize" : 9.0,
					"hidden" : 1,
					"numinlets" : 2,
					"numoutlets" : 1,
					"patching_rect" : [ 456.0, 177.0, 32.5, 15.0 ],
					"outlettype" : [ "" ],
					"id" : "obj-3",
					"fontname" : "Arial"
				}

			}
, 			{
				"box" : 				{
					"maxclass" : "umenu",
					"fontsize" : 12.0,
					"types" : [  ],
					"numinlets" : 1,
					"bgcolor" : [ 0.988235, 0.890196, 0.627451, 1.0 ],
					"items" : [ 12.0, ",", 15.0, ",", 24.0, ",", 25.0, ",", 30.0 ],
					"hltcolor" : [ 0.988235, 0.890196, 0.627451, 1.0 ],
					"numoutlets" : 3,
					"framecolor" : [ 0.015686, 0.015686, 0.015686, 1.0 ],
					"textcolor" : [ 0.0, 0.0, 0.0, 1.0 ],
					"patching_rect" : [ 325.0, 201.0, 116.0, 20.0 ],
					"discolor" : [ 0.439216, 0.439216, 0.439216, 1.0 ],
					"outlettype" : [ "int", "", "" ],
					"id" : "obj-4",
					"bgcolor2" : [ 0.933333, 0.733333, 0.556863, 1.0 ],
					"fontname" : "Arial",
					"togcolor" : [ 0.552941, 0.552941, 0.552941, 1.0 ],
					"textcolor2" : [ 0.0, 0.0, 0.0, 1.0 ]
				}

			}
, 			{
				"box" : 				{
					"maxclass" : "comment",
					"text" : "FPS:",
					"fontsize" : 14.0,
					"numinlets" : 1,
					"numoutlets" : 0,
					"patching_rect" : [ 276.0, 200.0, 165.0, 23.0 ],
					"id" : "obj-6",
					"fontname" : "Arial"
				}

			}
, 			{
				"box" : 				{
					"maxclass" : "panel",
					"numinlets" : 1,
					"bgcolor" : [ 0.827451, 0.662745, 0.662745, 1.0 ],
					"numoutlets" : 0,
					"patching_rect" : [ 232.0, 183.0, 227.0, 63.0 ],
					"id" : "obj-7",
					"rounded" : 50
				}

			}
, 			{
				"box" : 				{
					"maxclass" : "inlet",
					"hidden" : 1,
					"numinlets" : 0,
					"numoutlets" : 1,
					"patching_rect" : [ 38.0, 34.0, 25.0, 25.0 ],
					"outlettype" : [ "" ],
					"id" : "obj-55",
					"comment" : ""
				}

			}
, 			{
				"box" : 				{
					"maxclass" : "newobj",
					"text" : "p framedump",
					"fontsize" : 9.0,
					"hidden" : 1,
					"numinlets" : 3,
					"numoutlets" : 0,
					"patching_rect" : [ 140.0, 231.0, 65.0, 17.0 ],
					"id" : "obj-16",
					"fontname" : "Arial",
					"patcher" : 					{
						"fileversion" : 1,
						"rect" : [ 747.0, 144.0, 785.0, 626.0 ],
						"bglocked" : 0,
						"defrect" : [ 747.0, 144.0, 785.0, 626.0 ],
						"openrect" : [ 0.0, 0.0, 0.0, 0.0 ],
						"openinpresentation" : 0,
						"default_fontsize" : 12.0,
						"default_fontface" : 0,
						"default_fontname" : "Arial",
						"gridonopen" : 0,
						"gridsize" : [ 15.0, 15.0 ],
						"gridsnaponopen" : 0,
						"toolbarvisible" : 1,
						"boxanimatetime" : 200,
						"imprint" : 0,
						"enablehscroll" : 1,
						"enablevscroll" : 1,
						"devicewidth" : 0.0,
						"boxes" : [ 							{
								"box" : 								{
									"maxclass" : "comment",
									"text" : "<-- control in",
									"fontsize" : 12.0,
									"hidden" : 1,
									"numinlets" : 1,
									"numoutlets" : 0,
									"patching_rect" : [ 205.0, 70.0, 78.0, 20.0 ],
									"id" : "obj-3",
									"fontname" : "Arial"
								}

							}
, 							{
								"box" : 								{
									"maxclass" : "comment",
									"text" : "<-- audio in",
									"fontsize" : 12.0,
									"hidden" : 1,
									"numinlets" : 1,
									"numoutlets" : 0,
									"patching_rect" : [ 85.0, 44.0, 70.0, 20.0 ],
									"id" : "obj-1",
									"fontname" : "Arial"
								}

							}
, 							{
								"box" : 								{
									"maxclass" : "comment",
									"text" : "<-- video in",
									"fontsize" : 12.0,
									"hidden" : 1,
									"numinlets" : 1,
									"numoutlets" : 0,
									"patching_rect" : [ 54.0, 14.0, 70.0, 20.0 ],
									"id" : "obj-2",
									"fontname" : "Arial"
								}

							}
, 							{
								"box" : 								{
									"maxclass" : "newobj",
									"text" : "r fps",
									"fontsize" : 12.0,
									"numinlets" : 0,
									"numoutlets" : 1,
									"patching_rect" : [ 365.0, 279.0, 34.0, 20.0 ],
									"outlettype" : [ "" ],
									"id" : "obj-24",
									"fontname" : "Arial"
								}

							}
, 							{
								"box" : 								{
									"maxclass" : "message",
									"text" : "set write $1 jpeg high",
									"fontsize" : 9.0,
									"numinlets" : 2,
									"numoutlets" : 1,
									"patching_rect" : [ 272.0, 329.0, 96.0, 15.0 ],
									"outlettype" : [ "" ],
									"id" : "obj-4",
									"fontname" : "Arial"
								}

							}
, 							{
								"box" : 								{
									"maxclass" : "message",
									"text" : "write 24. jpeg high",
									"fontsize" : 12.0,
									"numinlets" : 2,
									"bgcolor" : [ 1.0, 0.611765, 0.611765, 1.0 ],
									"numoutlets" : 1,
									"patching_rect" : [ 104.0, 337.0, 108.0, 18.0 ],
									"outlettype" : [ "" ],
									"id" : "obj-5",
									"fontname" : "Arial"
								}

							}
, 							{
								"box" : 								{
									"maxclass" : "button",
									"numinlets" : 1,
									"numoutlets" : 1,
									"patching_rect" : [ 69.0, 171.0, 15.0, 15.0 ],
									"outlettype" : [ "bang" ],
									"id" : "obj-9"
								}

							}
, 							{
								"box" : 								{
									"maxclass" : "button",
									"numinlets" : 1,
									"numoutlets" : 1,
									"patching_rect" : [ 43.0, 172.0, 15.0, 15.0 ],
									"outlettype" : [ "bang" ],
									"id" : "obj-10"
								}

							}
, 							{
								"box" : 								{
									"maxclass" : "newobj",
									"text" : "sel 1 0",
									"fontsize" : 9.0,
									"numinlets" : 1,
									"numoutlets" : 3,
									"patching_rect" : [ 47.0, 150.0, 40.0, 17.0 ],
									"outlettype" : [ "bang", "bang", "" ],
									"id" : "obj-11",
									"fontname" : "Arial"
								}

							}
, 							{
								"box" : 								{
									"maxclass" : "inlet",
									"numinlets" : 0,
									"numoutlets" : 1,
									"patching_rect" : [ 16.0, 11.0, 27.0, 27.0 ],
									"outlettype" : [ "" ],
									"id" : "obj-12",
									"comment" : ""
								}

							}
, 							{
								"box" : 								{
									"maxclass" : "inlet",
									"numinlets" : 0,
									"numoutlets" : 1,
									"patching_rect" : [ 51.0, 39.0, 24.0, 24.0 ],
									"outlettype" : [ "" ],
									"id" : "obj-13",
									"comment" : ""
								}

							}
, 							{
								"box" : 								{
									"maxclass" : "inlet",
									"numinlets" : 0,
									"numoutlets" : 1,
									"patching_rect" : [ 163.0, 65.0, 31.0, 31.0 ],
									"outlettype" : [ "int" ],
									"id" : "obj-14",
									"comment" : ""
								}

							}
, 							{
								"box" : 								{
									"maxclass" : "newobj",
									"text" : "r dim",
									"fontsize" : 9.0,
									"numinlets" : 0,
									"numoutlets" : 1,
									"patching_rect" : [ 84.0, 212.0, 33.0, 17.0 ],
									"outlettype" : [ "" ],
									"id" : "obj-15",
									"fontname" : "Arial"
								}

							}
, 							{
								"box" : 								{
									"maxclass" : "message",
									"text" : "stop",
									"fontsize" : 12.0,
									"numinlets" : 2,
									"numoutlets" : 1,
									"patching_rect" : [ 128.0, 226.0, 36.0, 18.0 ],
									"outlettype" : [ "" ],
									"id" : "obj-19",
									"fontname" : "Arial"
								}

							}
, 							{
								"box" : 								{
									"maxclass" : "newobj",
									"text" : "jit.vcr 320 240",
									"fontsize" : 12.0,
									"numinlets" : 3,
									"numoutlets" : 2,
									"patching_rect" : [ 201.0, 284.0, 85.0, 20.0 ],
									"outlettype" : [ "jit_matrix", "" ],
									"id" : "obj-20",
									"fontname" : "Arial"
								}

							}
 ],
						"lines" : [ 							{
								"patchline" : 								{
									"source" : [ "obj-9", 0 ],
									"destination" : [ "obj-19", 0 ],
									"hidden" : 0,
									"midpoints" : [  ]
								}

							}
, 							{
								"patchline" : 								{
									"source" : [ "obj-10", 0 ],
									"destination" : [ "obj-5", 0 ],
									"hidden" : 0,
									"midpoints" : [  ]
								}

							}
, 							{
								"patchline" : 								{
									"source" : [ "obj-4", 0 ],
									"destination" : [ "obj-5", 0 ],
									"hidden" : 0,
									"midpoints" : [  ]
								}

							}
, 							{
								"patchline" : 								{
									"source" : [ "obj-11", 1 ],
									"destination" : [ "obj-9", 0 ],
									"hidden" : 0,
									"midpoints" : [  ]
								}

							}
, 							{
								"patchline" : 								{
									"source" : [ "obj-11", 0 ],
									"destination" : [ "obj-10", 0 ],
									"hidden" : 0,
									"midpoints" : [  ]
								}

							}
, 							{
								"patchline" : 								{
									"source" : [ "obj-24", 0 ],
									"destination" : [ "obj-4", 0 ],
									"hidden" : 0,
									"midpoints" : [  ]
								}

							}
, 							{
								"patchline" : 								{
									"source" : [ "obj-19", 0 ],
									"destination" : [ "obj-20", 0 ],
									"hidden" : 0,
									"midpoints" : [ 137.5, 260.0, 210.5, 260.0 ]
								}

							}
, 							{
								"patchline" : 								{
									"source" : [ "obj-15", 0 ],
									"destination" : [ "obj-20", 0 ],
									"hidden" : 0,
									"midpoints" : [  ]
								}

							}
, 							{
								"patchline" : 								{
									"source" : [ "obj-5", 0 ],
									"destination" : [ "obj-20", 0 ],
									"hidden" : 0,
									"midpoints" : [ 73.0, 339.0, 15.0, 296.0, 50.0, 272.0 ]
								}

							}
, 							{
								"patchline" : 								{
									"source" : [ "obj-14", 0 ],
									"destination" : [ "obj-11", 0 ],
									"hidden" : 0,
									"midpoints" : [  ]
								}

							}
, 							{
								"patchline" : 								{
									"source" : [ "obj-13", 0 ],
									"destination" : [ "obj-20", 1 ],
									"hidden" : 0,
									"midpoints" : [  ]
								}

							}
, 							{
								"patchline" : 								{
									"source" : [ "obj-13", 0 ],
									"destination" : [ "obj-20", 0 ],
									"hidden" : 0,
									"midpoints" : [  ]
								}

							}
, 							{
								"patchline" : 								{
									"source" : [ "obj-12", 0 ],
									"destination" : [ "obj-20", 2 ],
									"hidden" : 0,
									"midpoints" : [ 25.5, 115.0, 276.5, 115.0 ]
								}

							}
 ]
					}
,
					"saved_object_attributes" : 					{
						"fontface" : 0,
						"fontsize" : 12.0,
						"default_fontface" : 0,
						"fontname" : "Arial",
						"default_fontname" : "Arial",
						"globalpatchername" : "",
						"default_fontsize" : 12.0
					}

				}

			}
, 			{
				"box" : 				{
					"maxclass" : "comment",
					"text" : "3. Click \"START\" to begin recording.",
					"fontsize" : 12.0,
					"numinlets" : 1,
					"numoutlets" : 0,
					"patching_rect" : [ 350.0, 374.0, 209.0, 20.0 ],
					"id" : "obj-17",
					"fontname" : "Arial"
				}

			}
, 			{
				"box" : 				{
					"maxclass" : "newobj",
					"text" : "r bang",
					"fontsize" : 9.0,
					"hidden" : 1,
					"numinlets" : 0,
					"numoutlets" : 1,
					"patching_rect" : [ 440.0, 65.0, 35.0, 17.0 ],
					"outlettype" : [ "" ],
					"id" : "obj-23",
					"fontname" : "Arial"
				}

			}
, 			{
				"box" : 				{
					"maxclass" : "message",
					"text" : "5",
					"fontsize" : 9.0,
					"hidden" : 1,
					"numinlets" : 2,
					"numoutlets" : 1,
					"patching_rect" : [ 403.0, 82.0, 32.5, 15.0 ],
					"outlettype" : [ "" ],
					"id" : "obj-24",
					"fontname" : "Arial"
				}

			}
, 			{
				"box" : 				{
					"maxclass" : "umenu",
					"fontsize" : 12.0,
					"types" : [  ],
					"numinlets" : 1,
					"bgcolor" : [ 0.988235, 0.890196, 0.627451, 1.0 ],
					"items" : [ 320, "x", 180, ",", 320, "x", 240, ",", 640, "x", 360, ",", 640, "x", 480, ",", 720, "x", 480, ",", 854, "x", 480 ],
					"hltcolor" : [ 0.988235, 0.890196, 0.627451, 1.0 ],
					"numoutlets" : 3,
					"framecolor" : [ 0.015686, 0.015686, 0.015686, 1.0 ],
					"textcolor" : [ 0.0, 0.0, 0.0, 1.0 ],
					"patching_rect" : [ 246.0, 112.0, 116.0, 20.0 ],
					"discolor" : [ 0.439216, 0.439216, 0.439216, 1.0 ],
					"outlettype" : [ "int", "", "" ],
					"id" : "obj-25",
					"bgcolor2" : [ 0.933333, 0.733333, 0.556863, 1.0 ],
					"fontname" : "Arial",
					"togcolor" : [ 0.552941, 0.552941, 0.552941, 1.0 ],
					"textcolor2" : [ 0.0, 0.0, 0.0, 1.0 ]
				}

			}
, 			{
				"box" : 				{
					"maxclass" : "newobj",
					"text" : "p sizer",
					"fontsize" : 9.0,
					"hidden" : 1,
					"numinlets" : 1,
					"numoutlets" : 0,
					"patching_rect" : [ 393.0, 150.0, 70.0, 17.0 ],
					"id" : "obj-29",
					"fontname" : "Arial",
					"patcher" : 					{
						"fileversion" : 1,
						"rect" : [ 436.0, 309.0, 533.0, 439.0 ],
						"bglocked" : 0,
						"defrect" : [ 436.0, 309.0, 533.0, 439.0 ],
						"openrect" : [ 0.0, 0.0, 0.0, 0.0 ],
						"openinpresentation" : 0,
						"default_fontsize" : 12.0,
						"default_fontface" : 0,
						"default_fontname" : "Arial",
						"gridonopen" : 0,
						"gridsize" : [ 15.0, 15.0 ],
						"gridsnaponopen" : 0,
						"toolbarvisible" : 1,
						"boxanimatetime" : 200,
						"imprint" : 0,
						"enablehscroll" : 1,
						"enablevscroll" : 1,
						"devicewidth" : 0.0,
						"boxes" : [ 							{
								"box" : 								{
									"maxclass" : "number",
									"fontsize" : 12.0,
									"numinlets" : 1,
									"numoutlets" : 2,
									"patching_rect" : [ 85.0, 138.0, 50.0, 20.0 ],
									"outlettype" : [ "int", "bang" ],
									"id" : "obj-19",
									"fontname" : "Arial"
								}

							}
, 							{
								"box" : 								{
									"maxclass" : "number",
									"fontsize" : 12.0,
									"numinlets" : 1,
									"numoutlets" : 2,
									"patching_rect" : [ 222.0, 133.0, 50.0, 20.0 ],
									"outlettype" : [ "int", "bang" ],
									"id" : "obj-17",
									"fontname" : "Arial"
								}

							}
, 							{
								"box" : 								{
									"maxclass" : "newobj",
									"text" : "unpack i s i",
									"fontsize" : 12.0,
									"numinlets" : 1,
									"numoutlets" : 3,
									"patching_rect" : [ 137.0, 98.0, 71.0, 20.0 ],
									"outlettype" : [ "int", "", "int" ],
									"id" : "obj-15",
									"fontname" : "Arial"
								}

							}
, 							{
								"box" : 								{
									"maxclass" : "newobj",
									"text" : "pack i i",
									"fontsize" : 12.0,
									"numinlets" : 2,
									"numoutlets" : 1,
									"patching_rect" : [ 132.0, 172.0, 48.0, 20.0 ],
									"outlettype" : [ "" ],
									"id" : "obj-14",
									"fontname" : "Arial"
								}

							}
, 							{
								"box" : 								{
									"maxclass" : "inlet",
									"numinlets" : 0,
									"numoutlets" : 1,
									"patching_rect" : [ 144.0, 40.0, 15.0, 15.0 ],
									"outlettype" : [ "" ],
									"id" : "obj-1",
									"comment" : ""
								}

							}
, 							{
								"box" : 								{
									"maxclass" : "newobj",
									"text" : "print",
									"fontsize" : 9.0,
									"numinlets" : 1,
									"numoutlets" : 0,
									"patching_rect" : [ 181.0, 286.0, 31.0, 17.0 ],
									"id" : "obj-3",
									"fontname" : "Arial"
								}

							}
, 							{
								"box" : 								{
									"maxclass" : "newobj",
									"text" : "s size",
									"fontsize" : 9.0,
									"numinlets" : 1,
									"numoutlets" : 0,
									"patching_rect" : [ 252.0, 286.0, 35.0, 17.0 ],
									"id" : "obj-4",
									"fontname" : "Arial"
								}

							}
, 							{
								"box" : 								{
									"maxclass" : "newobj",
									"text" : "s dim",
									"fontsize" : 9.0,
									"numinlets" : 1,
									"numoutlets" : 0,
									"patching_rect" : [ 74.0, 290.0, 33.0, 17.0 ],
									"id" : "obj-5",
									"fontname" : "Arial"
								}

							}
, 							{
								"box" : 								{
									"maxclass" : "newobj",
									"text" : "prepend size",
									"fontsize" : 9.0,
									"numinlets" : 1,
									"numoutlets" : 1,
									"patching_rect" : [ 242.0, 256.0, 65.0, 17.0 ],
									"outlettype" : [ "" ],
									"id" : "obj-6",
									"fontname" : "Arial"
								}

							}
, 							{
								"box" : 								{
									"maxclass" : "newobj",
									"text" : "prepend dim",
									"fontsize" : 9.0,
									"numinlets" : 1,
									"numoutlets" : 1,
									"patching_rect" : [ 93.0, 256.0, 63.0, 17.0 ],
									"outlettype" : [ "" ],
									"id" : "obj-7",
									"fontname" : "Arial"
								}

							}
 ],
						"lines" : [ 							{
								"patchline" : 								{
									"source" : [ "obj-6", 0 ],
									"destination" : [ "obj-4", 0 ],
									"hidden" : 0,
									"midpoints" : [  ]
								}

							}
, 							{
								"patchline" : 								{
									"source" : [ "obj-7", 0 ],
									"destination" : [ "obj-3", 0 ],
									"hidden" : 0,
									"midpoints" : [  ]
								}

							}
, 							{
								"patchline" : 								{
									"source" : [ "obj-6", 0 ],
									"destination" : [ "obj-3", 0 ],
									"hidden" : 0,
									"midpoints" : [  ]
								}

							}
, 							{
								"patchline" : 								{
									"source" : [ "obj-7", 0 ],
									"destination" : [ "obj-5", 0 ],
									"hidden" : 0,
									"midpoints" : [  ]
								}

							}
, 							{
								"patchline" : 								{
									"source" : [ "obj-15", 0 ],
									"destination" : [ "obj-14", 0 ],
									"hidden" : 0,
									"midpoints" : [  ]
								}

							}
, 							{
								"patchline" : 								{
									"source" : [ "obj-15", 2 ],
									"destination" : [ "obj-14", 1 ],
									"hidden" : 0,
									"midpoints" : [  ]
								}

							}
, 							{
								"patchline" : 								{
									"source" : [ "obj-14", 0 ],
									"destination" : [ "obj-7", 0 ],
									"hidden" : 0,
									"midpoints" : [  ]
								}

							}
, 							{
								"patchline" : 								{
									"source" : [ "obj-14", 0 ],
									"destination" : [ "obj-6", 0 ],
									"hidden" : 0,
									"midpoints" : [  ]
								}

							}
, 							{
								"patchline" : 								{
									"source" : [ "obj-1", 0 ],
									"destination" : [ "obj-15", 0 ],
									"hidden" : 0,
									"midpoints" : [  ]
								}

							}
, 							{
								"patchline" : 								{
									"source" : [ "obj-15", 0 ],
									"destination" : [ "obj-19", 0 ],
									"hidden" : 0,
									"midpoints" : [  ]
								}

							}
, 							{
								"patchline" : 								{
									"source" : [ "obj-15", 2 ],
									"destination" : [ "obj-17", 0 ],
									"hidden" : 0,
									"midpoints" : [  ]
								}

							}
 ]
					}
,
					"saved_object_attributes" : 					{
						"fontface" : 0,
						"fontsize" : 12.0,
						"default_fontface" : 0,
						"fontname" : "Arial",
						"default_fontname" : "Arial",
						"globalpatchername" : "",
						"default_fontsize" : 12.0
					}

				}

			}
, 			{
				"box" : 				{
					"maxclass" : "comment",
					"text" : "START",
					"fontsize" : 14.0,
					"numinlets" : 1,
					"numoutlets" : 0,
					"patching_rect" : [ 159.0, 336.0, 56.0, 23.0 ],
					"id" : "obj-37",
					"fontname" : "Arial"
				}

			}
, 			{
				"box" : 				{
					"maxclass" : "comment",
					"text" : "SIZE:",
					"fontsize" : 14.0,
					"numinlets" : 1,
					"numoutlets" : 0,
					"patching_rect" : [ 187.0, 113.0, 165.0, 23.0 ],
					"id" : "obj-41",
					"fontname" : "Arial"
				}

			}
, 			{
				"box" : 				{
					"maxclass" : "panel",
					"numinlets" : 1,
					"bgcolor" : [ 0.827451, 0.662745, 0.662745, 1.0 ],
					"numoutlets" : 0,
					"patching_rect" : [ 153.0, 94.0, 227.0, 63.0 ],
					"id" : "obj-42",
					"rounded" : 50
				}

			}
, 			{
				"box" : 				{
					"maxclass" : "comment",
					"text" : "INSTRUCTIONS:",
					"fontsize" : 12.0,
					"numinlets" : 1,
					"numoutlets" : 0,
					"patching_rect" : [ 350.0, 296.0, 104.0, 20.0 ],
					"id" : "obj-44",
					"fontname" : "Arial"
				}

			}
, 			{
				"box" : 				{
					"maxclass" : "comment",
					"text" : "1. Choose the clip size.",
					"fontsize" : 12.0,
					"numinlets" : 1,
					"numoutlets" : 0,
					"patching_rect" : [ 351.0, 319.0, 135.0, 20.0 ],
					"id" : "obj-51",
					"fontname" : "Arial"
				}

			}
, 			{
				"box" : 				{
					"maxclass" : "toggle",
					"numinlets" : 1,
					"numoutlets" : 1,
					"patching_rect" : [ 114.0, 317.0, 42.0, 42.0 ],
					"outlettype" : [ "int" ],
					"id" : "obj-53"
				}

			}
, 			{
				"box" : 				{
					"maxclass" : "panel",
					"numinlets" : 1,
					"bgcolor" : [ 0.745098, 0.74902, 0.870588, 1.0 ],
					"numoutlets" : 0,
					"border" : 2,
					"patching_rect" : [ 110.0, 283.0, 109.0, 108.0 ],
					"id" : "obj-54",
					"rounded" : 50,
					"bordercolor" : [ 1.0, 0.392157, 0.098039, 1.0 ]
				}

			}
 ],
		"lines" : [ 			{
				"patchline" : 				{
					"source" : [ "obj-23", 0 ],
					"destination" : [ "obj-24", 0 ],
					"hidden" : 1,
					"midpoints" : [  ]
				}

			}
, 			{
				"patchline" : 				{
					"source" : [ "obj-24", 0 ],
					"destination" : [ "obj-25", 0 ],
					"hidden" : 1,
					"midpoints" : [  ]
				}

			}
, 			{
				"patchline" : 				{
					"source" : [ "obj-3", 0 ],
					"destination" : [ "obj-4", 0 ],
					"hidden" : 1,
					"midpoints" : [  ]
				}

			}
, 			{
				"patchline" : 				{
					"source" : [ "obj-2", 0 ],
					"destination" : [ "obj-3", 0 ],
					"hidden" : 1,
					"midpoints" : [  ]
				}

			}
, 			{
				"patchline" : 				{
					"source" : [ "obj-4", 1 ],
					"destination" : [ "obj-18", 0 ],
					"hidden" : 1,
					"midpoints" : [  ]
				}

			}
, 			{
				"patchline" : 				{
					"source" : [ "obj-4", 1 ],
					"destination" : [ "obj-26", 0 ],
					"hidden" : 1,
					"midpoints" : [  ]
				}

			}
, 			{
				"patchline" : 				{
					"source" : [ "obj-25", 1 ],
					"destination" : [ "obj-29", 0 ],
					"hidden" : 1,
					"midpoints" : [  ]
				}

			}
, 			{
				"patchline" : 				{
					"source" : [ "obj-28", 0 ],
					"destination" : [ "obj-53", 0 ],
					"hidden" : 1,
					"midpoints" : [  ]
				}

			}
, 			{
				"patchline" : 				{
					"source" : [ "obj-55", 0 ],
					"destination" : [ "obj-16", 0 ],
					"hidden" : 1,
					"midpoints" : [  ]
				}

			}
, 			{
				"patchline" : 				{
					"source" : [ "obj-5", 0 ],
					"destination" : [ "obj-16", 1 ],
					"hidden" : 1,
					"midpoints" : [  ]
				}

			}
, 			{
				"patchline" : 				{
					"source" : [ "obj-53", 0 ],
					"destination" : [ "obj-16", 2 ],
					"hidden" : 1,
					"midpoints" : [ 123.5, 368.0, 56.0, 368.0, 56.0, 212.0, 195.5, 212.0 ]
				}

			}
 ]
	}

}
